<?xml version="1.0" encoding="UTF-8"?>
<svg version="1.1" viewBox="0 0 1372 1492" width="1280" height="1280" xmlns="http://www.w3.org/2000/svg">
<path transform="translate(1115,2)" d="m0 0h4l-1 6-11 27-13 33-32 80-2 4 15-3 106-15 114-16 73-10 2 2-10 23-15 38-15 37-20 49-13 33-10 25-19 4-254 39-37 6h-4l-1 6-18 42-19 45-13 31-19 45-17 40-18 43-15 35-13 31-19 45-14 33-18 43-12 28-13 31-19 45-12 28-13 31-16 38-17 40-18 43-12 28-13 31-19 45-14 33-18 43-15 35-11 26-13 31-17 40-13 31-3 4-35 8-219 47h-4l1-6 6-13 12-29 15-36 17-40 15-36 19-45 15-36 8-19 18-43 14-33 18-43 11-26 13-31 10-24 32-76 18-43 14-33 36-86 16-38 18-43 14-33 13-31 14-33 12-29 31-74 14-33 11-26 16-38 5-12-11 1-638 92-63 9h-7l2-4 15-29 11-23 10-19 9-17 8-16 24-47 26-52 5-8 16-3 363-52 316-45 5-2 6-14 20-48 34-82 4-8 11-2 68-9 140-18z" fill="#29B9E8"/>
</svg>
